<svg width="733" height="42" viewBox="0 0 733 42" fill="none" xmlns="http://www.w3.org/2000/svg">
<path d="M351.271 1.012C348.569 2.46217 347.448 5.62619 346.789 13.2066C346.328 18.9414 345.932 20.6553 344.416 23.3578C339.802 31.4656 328.728 34.9592 318.313 31.6634C312.446 29.8177 308.887 26.9174 301.57 18.2163C294.912 10.1745 292.473 7.93328 288.518 6.28536C283.772 4.30785 283.575 5.6921 288.255 7.80145C292.078 9.51529 295.374 12.4816 299.922 18.4141C304.338 24.2148 308.359 28.1698 312.512 30.5428C322.466 36.3435 335.253 35.2229 342.57 27.9061C346.525 23.9511 347.58 21.1167 348.041 13.4044C348.371 7.9992 348.701 6.28536 349.755 4.83518C351.93 1.86892 354.106 0.946083 357.006 1.67117C359.049 2.19851 359.643 2.72584 360.17 4.5056C360.632 6.21944 360.5 6.87861 359.577 7.93328C358.193 9.44937 355.754 9.64712 354.633 8.26287C353.578 6.94453 354.435 5.62619 355.688 6.68086C356.808 7.6037 358.39 6.54903 357.665 5.36252C356.94 4.17602 354.238 4.5056 352.985 5.95577C351.799 7.27411 351.799 7.34003 353.447 9.05387C355.688 11.295 358.39 11.295 360.368 8.98795C362.411 6.54903 362.279 4.30785 359.972 1.93484C357.797 -0.240421 354.238 -0.635921 351.271 1.012Z" fill="white"/>
<path d="M373.42 1.73731C371.311 4.0444 371.245 7.20842 373.288 9.12001C375.2 10.8998 378.43 11.0316 379.88 9.38368C381.33 7.80167 381.264 6.41742 379.682 4.96724C378.364 3.78074 376.386 3.97849 376.386 5.36275C376.386 5.75825 376.782 5.956 377.243 5.75825C378.627 5.23091 379.946 6.3515 379.484 7.538C378.825 9.12001 377.243 9.51551 375.068 8.59268C373.552 7.99942 373.09 7.34025 373.09 6.02191C373.09 3.91257 373.618 3.12157 375.529 2.0669C377.836 0.88039 380.078 1.20998 382.253 3.05565C384.626 5.03316 385.615 8.13126 385.615 13.3387C385.615 22.1057 389.042 27.9063 396.425 31.6636C400.71 33.8389 401.369 33.9707 407.301 33.9707C413.036 33.9707 414.025 33.773 418.112 31.7954C424.242 28.961 426.879 26.7198 432.416 19.7986C438.546 12.0863 443.028 8.13126 446.851 7.01067C449.224 6.28558 449.62 6.02191 448.697 5.62641C446.851 4.83541 441.512 7.66984 438.15 11.1634C436.503 12.8114 433.273 16.5686 430.965 19.469C423.978 28.2359 417.453 32.125 408.62 32.7842C400.578 33.4434 392.865 29.6861 389.174 23.3581C387.592 20.7214 387.263 19.2053 386.867 13.1409C386.208 2.98973 384.099 0.0234718 377.639 0.0234718C375.661 0.0234718 374.606 0.418972 373.42 1.73731Z" fill="white"/>
<path d="M278.435 1.60401C271.645 4.57027 271.052 13.535 277.38 16.7649C279.687 17.9514 285.554 18.7424 287.465 18.1492C289.64 17.4241 287.663 16.5012 283.906 16.5012C275.798 16.5012 271.513 10.5687 275.864 5.42719C278.039 2.79051 280.808 1.80176 284.631 2.13134C290.893 2.72459 295.968 6.61369 302.956 16.1716C306.911 21.6428 314.425 27.2457 319.567 28.7618C324.708 30.2779 331.234 29.7505 335.057 27.5094C343.099 22.7633 345.406 15.5125 341.187 8.26162C336.046 -0.439421 322.335 1.47217 322.335 10.8983C322.335 16.0398 328.4 19.0061 332.486 15.7761C334.596 14.1282 334.266 13.2713 332.091 14.7874C329.916 16.3035 327.147 16.1057 325.301 14.1941C322.994 11.953 323.126 9.05262 325.565 6.61369C331.695 0.483418 342.044 6.08636 342.11 15.5784C342.11 21.9723 335.387 27.6412 327.015 28.1685C318.973 28.6959 311.986 25.1364 305.46 16.9627C298.539 8.45937 292.673 2.98826 289.113 1.80176C285.224 0.483418 281.203 0.4175 278.435 1.60401Z" fill="white"/>
<path d="M336.177 1.20997C336.177 1.53955 337.034 2.19872 338.088 2.66014C339.143 3.05564 340.791 4.30806 341.846 5.36274C344.021 7.66983 344.746 7.73575 344.746 5.75824C344.746 4.96723 345.273 3.51706 345.867 2.66014L346.921 1.01222L345.273 2.52831L343.559 4.11031L341.648 2.72606C339.473 1.20997 336.177 0.221213 336.177 1.20997Z" fill="white"/>
<path d="M394.183 1.40792C393.326 1.80342 392.007 2.52851 391.414 3.12176C390.293 4.11051 390.096 4.11051 388.448 2.59442L386.668 1.01242L387.789 2.79217C388.382 3.78093 388.909 5.16518 388.909 5.95619C388.909 7.73594 389.305 7.60411 391.612 5.36293C392.666 4.30826 394.38 3.05584 395.501 2.52851C398.863 1.07833 397.676 0.0236611 394.183 1.40792Z" fill="white"/>
<path d="M445.533 1.27449C440.853 2.72466 438.414 4.83401 430.966 13.7328C424.242 21.6428 420.221 25.0046 414.948 26.9821C404.071 31.069 391.547 24.675 391.547 15.183C391.547 8.19577 398.732 2.52691 404.994 4.63626C409.608 6.15235 411.322 10.6347 408.62 14.1283C406.972 16.1717 405.785 16.3036 402.819 14.4579C401.171 13.4691 400.38 13.3373 399.853 13.8646C398.666 15.0511 401.764 17.1605 404.797 17.1605C412.377 17.1605 413.498 6.61377 406.247 3.51567C400.907 1.27449 394.25 4.043 391.547 9.58003C388.713 15.4466 390.69 22.1702 396.491 26.3229C400.38 29.0914 403.544 29.8824 409.279 29.5529C417.848 29.0255 423.056 25.466 432.218 14.0624C437.491 7.47068 439.798 5.42726 444.281 3.38383C448.038 1.66999 451.532 1.66999 454.762 3.252C460.76 6.3501 461.024 12.6122 455.289 15.6444C453.971 16.3036 451.532 16.6991 448.697 16.765C444.808 16.765 444.347 16.8968 445.335 17.6219C448.038 19.5994 456.344 17.6878 459.046 14.4579C463.66 8.98677 458.255 0.615324 450.213 0.747156C448.565 0.747156 446.456 1.01082 445.533 1.27449Z" fill="white"/>
<path d="M300.252 4.70256C302.625 6.61415 304.273 8.52574 308.228 13.9968C312.447 19.7975 315.017 22.3024 318.05 23.8844C321.082 25.4664 329.124 26.3233 329.849 25.1368C330.178 24.6754 329.585 24.4117 328.201 24.4117C325.762 24.4117 318.643 21.3795 318.115 20.1271C317.918 19.5998 318.181 18.2815 318.577 17.0949C319.302 15.2493 319.236 14.9197 318.115 14.2605C314.885 12.283 313.765 11.0306 313.765 9.31674C313.765 6.08681 309.744 3.97747 307.832 6.28456C307.173 7.07557 306.712 7.00965 304.668 5.62539C303.284 4.76847 301.373 3.84564 300.252 3.58197L298.274 3.12055L300.252 4.70256Z" fill="white"/>
<path d="M431.097 4.373C429.844 4.90034 428.328 5.82318 427.735 6.35051C426.812 7.20743 426.548 7.20743 425.823 6.28459C423.912 4.04342 419.891 5.82318 419.891 8.98719C419.891 10.6351 418.704 12.1512 415.936 13.931C414.42 14.9197 414.354 15.1834 415.079 17.2268C415.804 19.0725 415.738 19.5339 414.815 20.5886C413.563 21.9728 407.367 24.4118 404.994 24.4118C403.939 24.4118 403.477 24.6754 403.807 25.1368C404.071 25.6642 405.785 25.796 408.817 25.5983C415.408 25.0709 418.177 23.1593 425.23 13.865C428.394 9.71228 432.019 5.62543 433.206 4.76851C435.645 3.12058 434.524 2.85691 431.097 4.373Z" fill="white"/>
<path d="M252.463 5.62606L250.881 7.3399L252.595 9.05374L254.309 10.7676L256.418 9.25149L258.461 7.80132L256.682 5.88972C255.693 4.83505 254.638 3.97813 254.44 3.97813C254.177 3.97813 253.32 4.70322 252.463 5.62606Z" fill="white"/>
<path d="M261.889 5.55912L260.043 7.14113L261.625 8.85497C263.602 10.9643 264.328 10.9643 266.305 8.92088L267.821 7.27296L266.305 5.62504C264.393 3.58161 264.196 3.58161 261.889 5.55912Z" fill="white"/>
<path d="M466.89 5.62654L465.044 7.27446L466.89 8.92239C467.878 9.84523 468.999 10.5703 469.263 10.5703C469.526 10.5703 470.449 9.84523 471.306 8.92239L472.822 7.27446L471.306 5.62654C470.449 4.7037 469.526 3.97862 469.263 3.97862C468.999 3.97862 467.878 4.7037 466.89 5.62654Z" fill="white"/>
<path d="M476.448 5.69197L474.734 7.47173L476.712 9.11965L478.689 10.7676L480.403 9.05374L482.117 7.3399L480.535 5.62606C478.623 3.58263 478.558 3.58263 476.448 5.69197Z" fill="white"/>
<path d="M364.52 7.60311L362.938 9.31695L364.718 11.0308L366.498 12.8105L368.476 10.899L370.453 8.98736L368.673 7.47127C366.366 5.6256 366.366 5.6256 364.52 7.60311Z" fill="white"/>
<path d="M0 7.27442C0 7.73584 41.1981 7.93359 122.276 7.93359C203.354 7.93359 244.552 7.73584 244.552 7.27442C244.552 6.81301 203.354 6.61525 122.276 6.61525C41.1981 6.61525 0 6.81301 0 7.27442Z" fill="white"/>
<path d="M488.445 7.27442C488.445 7.73584 529.643 7.93359 610.721 7.93359C691.799 7.93359 732.997 7.73584 732.997 7.27442C732.997 6.81301 691.799 6.61525 610.721 6.61525C529.643 6.61525 488.445 6.81301 488.445 7.27442Z" fill="white"/>
<path d="M334.067 7.73501C332.881 8.0646 332.419 10.2399 333.408 10.8331C334.133 11.2286 336.836 10.5694 336.836 9.97619C336.836 8.8556 335.122 7.53726 334.067 7.73501Z" fill="white"/>
<path d="M397.413 8.32817C396.292 9.64651 397.215 11.2285 399.061 11.2285C401.038 11.2285 401.697 10.3057 400.906 8.78959C400.115 7.40533 398.402 7.14166 397.413 8.32817Z" fill="white"/>
<path d="M451.202 7.80181C450.345 8.65873 451.004 10.5044 452.256 10.8999C453.838 11.4272 453.838 11.3613 454.432 9.51565C454.761 8.39506 454.564 8.06548 453.245 7.80181C452.322 7.60406 451.4 7.60406 451.202 7.80181Z" fill="white"/>
<path d="M278.829 8.72403C278.829 9.18545 279.093 9.97645 279.422 10.5038C280.213 11.7562 282.916 10.7675 282.652 9.3832C282.389 7.99894 278.829 7.40569 278.829 8.72403Z" fill="white"/>
<path d="M271.248 15.1838C272.764 18.0841 276.851 20.7867 282.256 22.4347C286.145 23.6212 287.2 23.6871 288.452 23.0279C290.561 21.9073 291.946 22.6983 293.198 25.7305C293.791 27.1807 294.516 28.3672 294.846 28.3672C295.835 28.3672 295.241 23.8848 293.989 22.3028C292.868 20.7867 292.143 20.589 286.54 20.3253C281.333 20.0617 279.817 19.6661 276.917 18.0841C275.005 17.0954 272.896 15.5793 272.236 14.7224C270.589 12.613 270.061 12.8108 271.248 15.1838Z" fill="white"/>
<path d="M460.43 15.3815C457.265 18.5456 453.245 19.9957 446.719 20.3253C441.511 20.589 440.852 20.7867 439.666 22.3028C438.281 24.0167 437.82 28.3672 439.006 28.3672C439.402 28.3672 439.666 27.9058 439.666 27.3125C439.666 25.7305 442.236 22.4347 443.555 22.4347C444.148 22.4347 445.005 22.7642 445.4 23.1597C445.994 23.753 447.642 23.4893 451.86 22.171C456.343 20.7867 458.056 19.8639 460.1 17.8205C461.55 16.3703 462.737 14.7224 462.737 14.195C462.737 13.0085 462.868 12.9426 460.43 15.3815Z" fill="white"/>
<path d="M361.554 19.5349L357.006 23.7536L361.686 28.4996L366.366 33.1797L371.376 28.6314L376.451 24.0831L371.903 19.6008C369.332 17.1619 367.025 15.1844 366.762 15.1844C366.432 15.2503 364.125 17.1619 361.554 19.5349Z" fill="white"/>
<path d="M351.337 16.6345C351.337 17.03 350.546 19.3371 349.624 21.6442C347.778 26.2584 347.778 29.6861 349.624 31.5977C350.546 32.4546 350.546 32.2569 349.887 30.0816C349.162 27.8404 349.228 27.4449 350.415 26.5221C351.074 25.8629 352.26 24.2809 352.919 22.9626C354.106 20.6555 354.106 20.3918 353.051 18.1506C351.931 15.7776 351.337 15.2503 351.337 16.6345Z" fill="white"/>
<path d="M380.143 18.6115C379.023 20.8527 379.023 21.1823 379.946 22.1711C380.539 22.6984 381 23.7531 381 24.4122C381 25.1373 381.593 25.9942 382.319 26.3897C383.769 27.1807 384.032 29.0264 382.978 31.0698C382.582 31.729 382.516 32.3223 382.846 32.3223C383.703 32.3223 384.955 29.2242 384.955 27.0489C384.955 25.9942 384.164 23.0939 383.11 20.655L381.33 16.1067L380.143 18.6115Z" fill="white"/>
<path d="M364.982 36.8046L363.202 38.6503L364.718 40.1004C366.63 41.9461 367.223 41.9461 369.003 40.0345L370.453 38.5184L368.607 36.7387L366.762 34.9589L364.982 36.8046Z" fill="white"/>
</svg>
